<svg width="772" height="458" viewBox="0 0 772 458" fill="none" xmlns="http://www.w3.org/2000/svg">
<g clip-path="url(#clip0)" filter="url(#filter0_d)">
<path d="M48 96C38.5065 96 29.2262 93.1849 21.3326 87.9105C13.4391 82.6362 7.28678 75.1397 3.65377 66.3688C0.0207672 57.5979 -0.929793 47.9467 0.922298 38.6356C2.77439 29.3246 7.34596 20.7718 14.0589 14.0589C20.7718 7.34594 29.3246 2.77439 38.6357 0.922298C47.9468 -0.929793 57.5979 0.0207672 66.3688 3.65377C75.1397 7.28678 82.6362 13.4391 87.9105 21.3326C93.1849 29.2262 96 38.5065 96 48C95.9856 60.726 90.9239 72.9266 81.9252 81.9252C72.9266 90.9239 60.726 95.9856 48 96ZM48 2C38.9021 2 30.0084 4.69785 22.4438 9.75239C14.8791 14.8069 8.98317 21.9912 5.50154 30.3966C2.01991 38.802 1.10896 48.051 2.88388 56.9741C4.6588 65.8973 9.03986 74.0937 15.4731 80.5269C21.9063 86.9601 30.1027 91.3412 39.0258 93.1161C47.949 94.891 57.198 93.9801 65.6034 90.4984C74.0088 87.0168 81.1931 81.1209 86.2476 73.5562C91.3022 65.9916 94 57.0979 94 48C93.9862 35.8043 89.1353 24.112 80.5117 15.4884C71.888 6.86467 60.1957 2.01382 48 2V2Z" fill="#F2F2F2"/>
<path d="M374 68C369.253 68 364.613 66.5924 360.666 63.9553C356.719 61.3181 353.643 57.5698 351.827 53.1844C350.01 48.799 349.535 43.9734 350.461 39.3178C351.387 34.6623 353.673 30.3859 357.029 27.0294C360.386 23.673 364.662 21.3872 369.318 20.4611C373.973 19.5351 378.799 20.0104 383.184 21.8269C387.57 23.6434 391.318 26.7195 393.955 30.6663C396.592 34.6131 398 39.2532 398 44C397.993 50.363 395.462 56.4633 390.963 60.9626C386.463 65.4619 380.363 67.9928 374 68V68ZM374 22C369.649 22 365.395 23.2903 361.777 25.7077C358.16 28.1251 355.34 31.561 353.675 35.581C352.01 39.6009 351.574 44.0244 352.423 48.292C353.272 52.5596 355.367 56.4796 358.444 59.5563C361.52 62.6331 365.44 64.7284 369.708 65.5773C373.976 66.4261 378.399 65.9905 382.419 64.3253C386.439 62.6602 389.875 59.8404 392.292 56.2225C394.71 52.6046 396 48.3512 396 44C395.993 38.1673 393.673 32.5753 389.549 28.4509C385.425 24.3266 379.833 22.0066 374 22Z" fill="#F2F2F2"/>
<path d="M543 185C537.66 185 532.44 183.416 528 180.45C523.559 177.483 520.099 173.266 518.055 168.332C516.012 163.399 515.477 157.97 516.519 152.733C517.561 147.495 520.132 142.684 523.908 138.908C527.684 135.132 532.495 132.561 537.733 131.519C542.97 130.477 548.399 131.012 553.332 133.055C558.266 135.099 562.483 138.559 565.45 143C568.416 147.44 570 152.66 570 158C569.992 165.158 567.145 172.021 562.083 177.083C557.021 182.145 550.158 184.992 543 185V185ZM543 133C538.055 133 533.222 134.466 529.111 137.213C525 139.96 521.795 143.865 519.903 148.433C518.011 153.001 517.516 158.028 518.48 162.877C519.445 167.727 521.826 172.181 525.322 175.678C528.819 179.174 533.273 181.555 538.123 182.52C542.972 183.484 547.999 182.989 552.567 181.097C557.135 179.205 561.04 176 563.787 171.889C566.534 167.778 568 162.945 568 158C567.993 151.372 565.356 145.017 560.669 140.331C555.983 135.644 549.628 133.007 543 133V133Z" fill="#F2F2F2"/>
<path d="M321.31 403.577L311.749 399.551L305.191 351.623H217.851L210.742 399.356L202.188 403.632C201.779 403.837 201.451 404.174 201.257 404.588C201.063 405.003 201.014 405.471 201.12 405.916C201.225 406.361 201.477 406.758 201.836 407.042C202.195 407.326 202.639 407.48 203.096 407.48H320.522C320.991 407.48 321.445 407.318 321.808 407.021C322.171 406.724 322.42 406.311 322.513 405.851C322.606 405.391 322.537 404.914 322.317 404.499C322.098 404.085 321.742 403.759 321.31 403.577V403.577Z" fill="#E6E6E6"/>
<path d="M476.519 358H47.481C45.23 357.995 43.0729 357.097 41.4829 355.504C39.893 353.91 39 351.751 39 349.5V289H485V349.5C485 351.751 484.107 353.91 482.517 355.504C480.927 357.097 478.77 357.995 476.519 358V358Z" fill="#CCCCCC"/>
<path d="M485.448 317.594H38.6084V58.7271C38.6115 56.0104 39.6922 53.4059 41.6132 51.485C43.5342 49.564 46.1387 48.4835 48.8554 48.4805H475.201C477.918 48.4835 480.523 49.5641 482.444 51.485C484.365 53.4059 485.445 56.0104 485.448 58.7271V317.594Z" fill="#3F3D56"/>
<path d="M458.76 298.805H65.2964C63.202 298.803 61.1941 297.97 59.7131 296.489C58.2321 295.008 57.3991 293 57.3967 290.906V75.1685C57.3991 73.074 58.2321 71.0661 59.713 69.5851C61.194 68.104 63.202 67.271 65.2964 67.2686H458.76C460.855 67.271 462.863 68.104 464.344 69.5851C465.825 71.0661 466.658 73.074 466.66 75.1685V290.906C466.658 293 465.825 295.008 464.344 296.489C462.863 297.97 460.855 298.803 458.76 298.805Z" fill="white"/>
<path d="M455.057 407.98H74.0569C73.7917 407.98 73.5374 407.875 73.3498 407.687C73.1623 407.5 73.0569 407.246 73.0569 406.98C73.0569 406.715 73.1623 406.461 73.3498 406.273C73.5374 406.086 73.7917 405.98 74.0569 405.98H455.057C455.322 405.98 455.577 406.086 455.764 406.273C455.952 406.461 456.057 406.715 456.057 406.98C456.057 407.246 455.952 407.5 455.764 407.687C455.577 407.875 455.322 407.98 455.057 407.98Z" fill="#CCCCCC"/>
<path d="M421.796 272H102.261C101.995 272 101.741 271.895 101.554 271.707C101.366 271.52 101.261 271.265 101.261 271V117.847C101.261 117.581 101.366 117.327 101.554 117.14C101.741 116.952 101.995 116.847 102.261 116.847C102.526 116.847 102.78 116.952 102.968 117.14C103.155 117.327 103.261 117.581 103.261 117.847V270H421.796C422.061 270 422.316 270.105 422.503 270.293C422.691 270.48 422.796 270.735 422.796 271C422.796 271.265 422.691 271.52 422.503 271.707C422.316 271.895 422.061 272 421.796 272Z" fill="#3F3D56"/>
<path d="M170.531 261H141.468C140.681 260.999 139.927 260.686 139.37 260.13C138.814 259.573 138.501 258.819 138.5 258.032V217.968C138.501 217.181 138.814 216.427 139.37 215.87C139.927 215.314 140.681 215.001 141.468 215H170.531C171.318 215.001 172.073 215.314 172.629 215.87C173.186 216.427 173.499 217.181 173.5 217.968V258.032C173.499 258.819 173.186 259.573 172.629 260.13C172.073 260.686 171.318 260.999 170.531 261V261Z" fill="#6C63FF"/>
<path d="M223.531 261H194.468C193.681 260.999 192.927 260.686 192.37 260.13C191.814 259.573 191.501 258.819 191.5 258.032V179.968C191.501 179.181 191.814 178.427 192.37 177.87C192.927 177.314 193.681 177.001 194.468 177H223.531C224.318 177.001 225.073 177.314 225.629 177.87C226.186 178.427 226.499 179.181 226.5 179.968V258.032C226.499 258.819 226.186 259.573 225.629 260.13C225.073 260.686 224.318 260.999 223.531 261V261Z" fill="#6C63FF"/>
<path d="M276.531 261H247.468C246.681 260.999 245.927 260.686 245.37 260.13C244.814 259.573 244.501 258.819 244.5 258.032V217.968C244.501 217.181 244.814 216.427 245.37 215.87C245.927 215.314 246.681 215.001 247.468 215H276.531C277.318 215.001 278.073 215.314 278.629 215.87C279.186 216.427 279.499 217.181 279.5 217.968V258.032C279.499 258.819 279.186 259.573 278.629 260.13C278.073 260.686 277.318 260.999 276.531 261V261Z" fill="#6C63FF"/>
<path d="M329.531 261H300.468C299.699 261.017 298.955 260.728 298.399 260.196C297.842 259.665 297.519 258.935 297.5 258.166V164.834C297.519 164.065 297.842 163.335 298.399 162.804C298.955 162.272 299.699 161.983 300.468 162H329.531C330.301 161.983 331.045 162.272 331.601 162.804C332.158 163.335 332.481 164.065 332.5 164.834V258.166C332.481 258.935 332.158 259.665 331.601 260.196C331.045 260.728 330.301 261.017 329.531 261V261Z" fill="#6C63FF"/>
<path d="M382.531 261H353.468C352.681 260.999 351.927 260.686 351.37 260.13C350.814 259.573 350.501 258.819 350.5 258.032V137.968C350.501 137.181 350.814 136.427 351.37 135.87C351.927 135.314 352.681 135.001 353.468 135H382.531C383.318 135.001 384.073 135.314 384.629 135.87C385.186 136.427 385.499 137.181 385.5 137.968V258.032C385.499 258.819 385.186 259.573 384.629 260.13C384.073 260.686 383.318 260.999 382.531 261V261Z" fill="#6C63FF"/>
<path d="M156 203C159.314 203 162 200.314 162 197C162 193.686 159.314 191 156 191C152.686 191 150 193.686 150 197C150 200.314 152.686 203 156 203Z" fill="#3F3D56"/>
<path d="M209 164C212.314 164 215 161.314 215 158C215 154.686 212.314 152 209 152C205.686 152 203 154.686 203 158C203 161.314 205.686 164 209 164Z" fill="#3F3D56"/>
<path d="M262 203C265.314 203 268 200.314 268 197C268 193.686 265.314 191 262 191C258.686 191 256 193.686 256 197C256 200.314 258.686 203 262 203Z" fill="#3F3D56"/>
<path d="M315 145C318.314 145 321 142.314 321 139C321 135.686 318.314 133 315 133C311.686 133 309 135.686 309 139C309 142.314 311.686 145 315 145Z" fill="#3F3D56"/>
<path d="M368 123C371.314 123 374 120.314 374 117C374 113.686 371.314 111 368 111C364.686 111 362 113.686 362 117C362 120.314 364.686 123 368 123Z" fill="#3F3D56"/>
<path d="M262.126 198.344L209 158.552L156.6 197.8L155.4 196.2L209 156.053L261.874 195.656L314.415 138.158L314.626 138.072L367.626 116.718L368.374 118.573L315.585 139.842L262.126 198.344Z" fill="#3F3D56"/>
<path d="M666.894 107.996C666.894 107.996 692.932 101.996 707.253 112.996C721.574 123.996 689.027 148.996 689.027 148.996L666.894 107.996Z" fill="#2F2E41"/>
<path d="M552.347 202.022C552.74 200.605 553.439 199.292 554.394 198.175C555.35 197.058 556.539 196.164 557.877 195.556C559.216 194.948 560.671 194.64 562.141 194.656C563.611 194.671 565.06 195.008 566.385 195.644L591.548 170.271L595.357 188.446L570.878 209.754C569.662 211.91 567.698 213.545 565.357 214.35C563.017 215.154 560.462 215.072 558.178 214.119C555.894 213.166 554.038 211.408 552.964 209.179C551.889 206.949 551.67 204.403 552.347 202.022L552.347 202.022Z" fill="#FFB8B8"/>
<path d="M694.472 434.967L682.239 434.155L679.549 386.585L697.603 387.783L694.472 434.967Z" fill="#FFB8B8"/>
<path d="M658.344 445.241H696.875V430.354H673.231C669.282 430.354 665.496 431.923 662.704 434.715C659.912 437.507 658.344 441.293 658.344 445.241V445.241V445.241Z" fill="#2F2E41"/>
<path d="M673.331 418.033L661.83 422.278L639.981 379.936L656.956 373.671L673.331 418.033Z" fill="#FFB8B8"/>
<path d="M643.591 441.146L679.738 427.803L674.582 413.837L652.401 422.025C648.697 423.392 645.688 426.175 644.036 429.76C642.384 433.346 642.224 437.442 643.591 441.146V441.146L643.591 441.146Z" fill="#2F2E41"/>
<path d="M639.889 235.283C639.889 235.283 627.501 241.954 631.312 268.637L635.124 369.652L656.184 415.701L674.29 410.936L662.76 373.463L678.008 307.708L680.008 427.137L697.161 429.996L721.845 231.471L690.397 217.176L639.889 235.283Z" fill="#2F2E41"/>
<path d="M684.17 96.6589C670.605 96.6589 659.609 85.6626 659.609 72.0979C659.609 58.5332 670.605 47.5369 684.17 47.5369C697.734 47.5369 708.731 58.5332 708.731 72.0979C708.731 85.6626 697.734 96.6589 684.17 96.6589Z" fill="#FFB8B8"/>
<path d="M668.611 103L681.241 123.099L699.7 104.914L734.209 128.712C735.42 129.544 736.308 130.757 736.729 132.151C737.15 133.545 737.079 135.039 736.527 136.388C731.218 149.319 717.625 187.542 721.56 231.73C721.56 231.73 695.328 225.03 668.125 232.687C640.923 240.344 634.122 237.473 634.122 237.473C634.122 237.473 640.923 188.66 637.036 178.132C633.813 169.399 627.247 140.252 625.102 130.566C624.899 129.651 625.001 128.696 625.391 127.843C625.782 126.989 626.441 126.282 627.27 125.825L668.611 103Z" fill="#6C63FF"/>
<path d="M648.641 117.838C649.499 118.566 650.083 119.568 650.283 120.656C650.484 121.744 650.288 122.844 649.731 123.75L617.953 175.501L589.046 196.095L578.27 179.87L598.033 164.787L611.888 133.188L643.676 117.153C644.448 116.763 645.332 116.62 646.216 116.742C647.099 116.864 647.944 117.246 648.641 117.838V117.838Z" fill="#6C63FF"/>
<path d="M703.162 37.6201C701.524 34.8401 699.15 32.5669 696.302 31.0514C693.453 29.5358 690.241 28.837 687.021 29.032C683.652 29.4545 680.365 30.3747 677.266 31.7626L661.21 38.0258C657.055 39.6465 652.505 41.6317 650.702 45.7106C649.029 49.4964 650.277 53.8687 651.541 57.8102L657.548 76.5458C658.214 72.3054 659.355 68.1537 660.952 64.1695C662.697 60.2522 665.457 56.6401 669.273 54.6827C673.443 52.5432 678.359 52.5875 683.041 52.8128C689.672 53.1319 696.881 53.9756 701.592 58.6525C704.093 61.3086 705.789 64.62 706.482 68.2018C707.164 71.7645 707.507 75.3837 707.507 79.011C710.226 74.337 712.517 69.4265 714.351 64.3396C715.859 60.5518 716.719 56.5369 716.893 52.4636C717.051 48.3553 715.688 44.3333 713.065 41.1674C710.352 38.1357 705.933 36.499 702.046 37.6992" fill="#2F2E41"/>
<path d="M716.821 265.479C716.3 264.104 716.086 262.632 716.195 261.166C716.303 259.7 716.732 258.276 717.451 256.993C718.17 255.711 719.161 254.602 720.355 253.744C721.549 252.886 722.916 252.301 724.361 252.028L729.623 216.683L743.451 229.078L736.334 260.742C736.631 263.199 736.015 265.68 734.605 267.714C733.194 269.747 731.087 271.193 728.682 271.777C726.276 272.361 723.741 272.042 721.555 270.882C719.369 269.721 717.685 267.798 716.821 265.479V265.479Z" fill="#FFB8B8"/>
<path d="M733.905 128.56C735.348 128.801 736.666 129.528 737.639 130.62C738.612 131.712 739.183 133.105 739.256 134.566L744.716 243.766H724.703L718.033 185.634L726.522 133.849C726.659 133.016 726.958 132.219 727.403 131.502C727.848 130.786 728.43 130.164 729.116 129.673C729.802 129.181 730.578 128.83 731.4 128.639C732.222 128.449 733.073 128.422 733.905 128.56V128.56Z" fill="#6C63FF"/>
<path d="M591.382 446.28H763.12V444.174H591L591.382 446.28Z" fill="#CCCCCC"/>
</g>
<defs>
<filter id="filter0_d" x="0" y="0" width="771.057" height="469" filterUnits="userSpaceOnUse" color-interpolation-filters="sRGB">
<feFlood flood-opacity="0" result="BackgroundImageFix"/>
<feColorMatrix in="SourceAlpha" type="matrix" values="0 0 0 0 0 0 0 0 0 0 0 0 0 0 0 0 0 0 127 0"/>
<feOffset dx="4" dy="7"/>
<feGaussianBlur stdDeviation="2"/>
<feColorMatrix type="matrix" values="0 0 0 0 0.014 0 0 0 0 0 0 0 0 0 0.7 0 0 0 0.25 0"/>
<feBlend mode="normal" in2="BackgroundImageFix" result="effect1_dropShadow"/>
<feBlend mode="normal" in="SourceGraphic" in2="effect1_dropShadow" result="shape"/>
</filter>
<clipPath id="clip0">
<rect width="763.057" height="458" fill="white"/>
</clipPath>
</defs>
</svg>
